<svg width="44" height="42" viewBox="0 0 44 42" fill="none" xmlns="http://www.w3.org/2000/svg">
<path d="M19.8808 6.64429C16.2014 9.75679 10.72 14.0611 7.24108 16.7031C6.43763 17.3132 7.00669 19.0625 8.01555 19.0625C8.55495 19.0625 8.98812 19.5074 8.97373 20.0466L8.53602 36.4444C8.48756 38.2599 10.0508 39.7018 11.8565 39.5071L32.4327 37.2888C33.9562 37.1245 35.1111 35.8384 35.1111 34.3061V19.498C35.1111 18.9468 35.5579 18.5 36.1091 18.5C37.0575 18.5 37.4712 17.3016 36.7248 16.7165L23.7569 6.55138C22.612 5.65392 20.9914 5.70475 19.8808 6.64429Z" fill="#2B6F70"/>
<path d="M13.836 28.718C13.1308 27.8977 12.4545 27.0679 12.1671 26.0274C11.4278 23.3501 13.2102 20.6677 16.1589 20.0899C17.2264 19.8808 18.2679 20.0778 19.2618 20.4693C20.1676 20.8262 20.9461 21.3467 21.5942 22.0297C22.1345 22.5992 22.8499 22.5806 23.4139 22.0211C24.7652 20.6802 26.3835 19.8407 28.4392 20.0254C29.0445 20.0797 29.668 20.2952 30.2083 20.5631C32.0437 21.4732 32.9527 22.9264 33 24.4624C33.0089 26.1722 31.7267 28.1876 30.8691 29.2279C28.8285 31.7031 26.6161 33.809 25.3847 34.6177C25.2143 34.7296 24.1331 35.6779 23.5379 36C20.1407 34.3713 16.6932 32.0413 13.836 28.718Z" fill="white"/>
<path d="M15.4863 28.5385C14.9154 27.9233 14.3679 27.3009 14.1353 26.5205C13.5368 24.5126 14.9797 22.5008 17.3667 22.0675C18.2309 21.9106 19.074 22.0584 19.8786 22.352C20.6119 22.6196 21.2421 23.01 21.7667 23.5223C22.2041 23.9494 22.7833 23.9355 23.2398 23.5158C24.3338 22.5102 25.6438 21.8805 27.308 22.019C27.7979 22.0598 28.3026 22.2214 28.7401 22.4224C30.2259 23.1049 30.9617 24.1948 31 25.3468C31.0072 26.6291 29.9693 28.1407 29.275 28.9209C27.6231 30.7773 25.8321 32.3568 24.8352 32.9633C24.6973 33.0472 23.822 33.7584 23.3402 34C20.5901 32.7785 17.7992 31.031 15.4863 28.5385Z" fill="#FF5A5F"/>
<path d="M43.4191 18.9512C41.99 17.6498 40.5654 16.3433 39.1309 15.0479C38.9454 14.8804 38.868 14.7125 38.8687 14.4597C38.8775 11.5119 38.8745 9.56411 38.8747 6.61629C38.8747 5.50559 38.1814 4.81891 37.0656 4.83776C35.506 4.86412 33.9461 4.89626 32.3873 4.83925C31.2636 4.79815 30.5407 5.48953 30.5326 6.59475C30.529 7.09306 30.532 6.59141 30.532 7.19573C30.3711 7.0511 30.2812 6.97131 30.1924 6.89034C27.8578 4.76195 25.5246 2.63193 23.188 0.505815C22.4451 -0.170131 21.5598 -0.168673 20.8138 0.510621C17.6327 3.40725 14.4543 6.30691 11.2753 9.20587C7.72783 12.4409 4.18011 15.6756 0.634041 18.9122C0.0344887 19.4594 -0.14463 20.1426 0.11705 20.8306C0.370583 21.4972 0.960785 21.8743 1.76117 21.8761C2.73639 21.8783 3.71162 21.8768 4.68685 21.8783C5.19063 21.8791 5.13176 21.8414 5.13184 22.3369C5.13289 28.3054 5.13193 24.274 5.13279 30.2425C5.13292 31.154 6.64165 31.4563 7.03135 31.1852C7.08346 31.149 7.1146 31.0913 7.12156 31.0281L7.11909 29.7359C7.11966 29.7309 7.11965 29.7258 7.1201 29.7208L7.12051 29.4861C7.12049 23.5487 7.1205 27.6112 7.12048 21.6738C7.12048 20.5588 6.44958 19.8809 5.34467 19.8793C4.47321 19.8779 3.60175 19.8767 2.73029 19.8745C2.7117 19.8745 2.69315 19.8629 2.6077 19.8343C9.08228 13.9296 15.531 8.04846 22.002 2.14704C22.6813 2.76549 23.3481 3.37151 24.0139 3.97872C25.9027 5.70152 27.7874 7.42885 29.6811 9.14626C30.6912 10.0623 32.1867 9.64709 32.4811 8.3667C32.5474 8.0782 32.5201 7.76643 32.5233 7.46524C32.529 6.93735 32.5249 7.40936 32.5249 6.86607H36.8865C36.8865 7.00382 36.8865 7.12533 36.8865 7.24684C36.8865 10.101 36.894 11.9552 36.8805 14.8092C36.8776 15.4408 37.1009 15.9276 37.5647 16.3436C38.7559 17.4123 39.9328 18.4969 41.1152 19.5754C41.1984 19.6513 41.2797 19.7292 41.44 19.8792H41.0662C40.257 19.8792 39.4477 19.8783 38.6385 19.8795C37.5715 19.881 36.8866 20.5669 36.8866 21.6352C36.8862 27.6143 36.8864 33.5934 36.8864 39.5725C36.8864 40.0139 36.8858 40.0205 36.445 40.0004C33.4248 39.8623 21.5908 38.2862 14.0898 28.7127C13.4277 27.8676 12.7926 27.0126 12.5228 25.9404C11.8285 23.1819 13.5022 20.4181 16.271 19.8229C17.2734 19.6073 18.2513 19.8104 19.1846 20.2138C20.0352 20.5814 20.7662 21.1177 21.3747 21.8215C21.882 22.4082 22.5539 22.3891 23.0834 21.8126C24.3523 20.4311 25.8718 19.5661 27.8022 19.7563C28.3705 19.8124 28.9559 20.0344 29.4633 20.3104C31.1868 21.2481 32.0403 22.7454 32.0846 24.328C32.093 26.0897 30.8891 28.1662 30.0838 29.2381C28.1677 31.7883 26.0902 33.9582 24.9339 34.7914C24.4292 35.1551 26.7353 34.9191 30.0359 31.6408C31.2098 30.4748 32.2807 29.2023 33.0091 27.6947C34.7944 23.9998 33.0297 19.2973 28.4128 18.2884C26.6536 17.904 24.998 18.4283 23.5043 19.414C23.0558 19.7099 22.6466 20.0659 22.1983 20.4105C21.2008 19.4525 20.0555 18.754 18.7152 18.378C14.9631 17.3254 11.3939 20.0891 10.7976 23.4193C10.427 25.4892 10.9482 27.3123 12.1222 29.0234C19.747 40.1373 33.2493 42.0551 37.0157 41.9988C38.073 41.983 38.894 41.2721 38.8882 40.1155C38.8581 34.1575 38.8762 28.1993 38.8688 22.2412C38.8685 21.9604 38.9348 21.8659 39.2288 21.871C40.2556 21.8888 41.2829 21.8791 42.3099 21.8746C42.464 21.8739 42.6234 21.8648 42.771 21.8249C43.3961 21.6559 43.801 21.2461 43.9479 20.6182C44.0999 19.9688 43.9178 19.4053 43.4191 18.9512Z" fill="#111111"/>
<rect x="36" y="10" width="7" height="4" rx="1" transform="rotate(90 36 10)" fill="#2B6F70"/>
</svg>
